<svg xmlns="http://www.w3.org/2000/svg" version="1.1" xmlns:xlink="http://www.w3.org/1999/xlink" xmlns:svgjs="http://svgjs.dev/svgjs" width="128" height="128" viewBox="0 0 128 128"><g transform="matrix(0.8046875,0,0,0.8046875,12.760752631578946,12.760752631578946)"><svg viewBox="0 0 95 95" data-background-color="#dedede" preserveAspectRatio="xMidYMid meet" height="128" width="128" xmlns="http://www.w3.org/2000/svg" xmlns:xlink="http://www.w3.org/1999/xlink"><g id="tight-bounds" transform="matrix(1,0,0,1,-0.24049999999999727,-0.24049999999999727)"><svg viewBox="0 0 95.481 95.481" height="95.481" width="95.481"><g><svg viewBox="0 0 95.481 95.481" height="95.481" width="95.481"><g><svg viewBox="0 0 95.481 95.481" height="95.481" width="95.481"><g><svg viewBox="0 0 95.481 95.481" height="95.481" width="95.481"><g><svg viewBox="0 0 95.481 95.481" height="95.481" width="95.481"><g><svg viewBox="0 0 95.481 95.481" height="95.481" width="95.481"><g><svg xmlns="http://www.w3.org/2000/svg" xmlns:xlink="http://www.w3.org/1999/xlink" version="1.1" x="0" y="0" viewBox="5 5 90 90" style="enable-background:new 0 0 100 100;" xml:space="preserve" height="95.481" width="95.481" class="icon-icon-0" data-fill-palette-color="accent" id="icon-0"><path d="M50 51c0.256 0 0.512-0.098 0.707-0.293l8-8c0.391-0.391 0.391-1.023 0-1.414s-1.023-0.391-1.414 0l-8 8c-0.391 0.391-0.391 1.023 0 1.414C49.488 50.902 49.744 51 50 51z" fill="#000000" data-fill-palette-color="accent"></path><path d="M50 57c0.256 0 0.512-0.098 0.707-0.293l8-8c0.391-0.391 0.391-1.023 0-1.414s-1.023-0.391-1.414 0l-8 8c-0.391 0.391-0.391 1.023 0 1.414C49.488 56.902 49.744 57 50 57z" fill="#000000" data-fill-palette-color="accent"></path><path d="M50 63c0.256 0 0.512-0.098 0.707-0.293l8-8c0.391-0.391 0.391-1.023 0-1.414s-1.023-0.391-1.414 0l-8 8c-0.391 0.391-0.391 1.023 0 1.414C49.488 62.902 49.744 63 50 63z" fill="#000000" data-fill-palette-color="accent"></path><path d="M50 69c0.256 0 0.512-0.098 0.707-0.293l8-8c0.391-0.391 0.391-1.023 0-1.414s-1.023-0.391-1.414 0l-8 8c-0.391 0.391-0.391 1.023 0 1.414C49.488 68.902 49.744 69 50 69z" fill="#000000" data-fill-palette-color="accent"></path><path d="M50 75c0.256 0 0.512-0.098 0.707-0.293l8-8c0.391-0.391 0.391-1.023 0-1.414s-1.023-0.391-1.414 0l-8 8c-0.391 0.391-0.391 1.023 0 1.414C49.488 74.902 49.744 75 50 75z" fill="#000000" data-fill-palette-color="accent"></path><path d="M50 81c0.256 0 0.512-0.098 0.707-0.293l8-8c0.391-0.391 0.391-1.023 0-1.414s-1.023-0.391-1.414 0l-8 8c-0.391 0.391-0.391 1.023 0 1.414C49.488 80.902 49.744 81 50 81z" fill="#000000" data-fill-palette-color="accent"></path><path d="M50 87c0.256 0 0.512-0.098 0.707-0.293l8-8c0.391-0.391 0.391-1.023 0-1.414s-1.023-0.391-1.414 0l-8 8c-0.391 0.391-0.391 1.023 0 1.414C49.488 86.902 49.744 87 50 87z" fill="#000000" data-fill-palette-color="accent"></path><path d="M94.93 91.35C94.972 91.238 95 91.123 95 91V43c0-0.265-0.105-0.52-0.293-0.707C94.328 41.914 85.273 33 73 33c-10.708 0-20.448 6.799-23 8.731C47.448 39.799 37.708 33 27 33c-12.273 0-21.328 8.914-21.707 9.293C5.105 42.48 5 42.735 5 43v48c0 0.123 0.029 0.238 0.07 0.35 0.013 0.033 0.029 0.063 0.045 0.095 0.038 0.075 0.084 0.144 0.14 0.207 0.023 0.026 0.045 0.054 0.07 0.078 0.076 0.069 0.161 0.129 0.258 0.173 0.012 0.006 0.021 0.016 0.032 0.02 0.001 0.001 0.001 0.001 0.002 0.002 0.111 0.045 0.228 0.063 0.344 0.068C5.975 91.992 5.986 92 6 92h36.612l-0.561 1.684c-0.103 0.305-0.051 0.641 0.137 0.9C42.377 94.846 42.679 95 43 95h14c0.321 0 0.623-0.154 0.812-0.416 0.188-0.26 0.239-0.596 0.137-0.9L57.388 92H94c0.014 0 0.024-0.007 0.037-0.008 0.117-0.004 0.234-0.021 0.346-0.068 0.001-0.001 0.001-0.001 0.002-0.002 0.012-0.004 0.021-0.014 0.032-0.02 0.097-0.045 0.182-0.104 0.258-0.173 0.026-0.024 0.047-0.052 0.07-0.078 0.056-0.063 0.102-0.132 0.14-0.207C94.9 91.412 94.917 91.383 94.93 91.35zM27 35c11.491 0 22.26 8.687 22.367 8.774 0.367 0.301 0.898 0.301 1.266 0C50.74 43.686 61.49 35 73 35c10.258 0 18.382 6.946 20 8.431v45.346C89.78 86.138 82.318 81 73 81c-10.708 0-20.448 6.799-23 8.731C47.448 87.799 37.708 81 27 81c-9.318 0-16.78 5.138-20 7.777v-2.363l7.707-7.707c0.391-0.391 0.391-1.023 0-1.414s-1.023-0.391-1.414 0L7 83.586v-3.172l7.707-7.707c0.391-0.391 0.391-1.023 0-1.414s-1.023-0.391-1.414 0L7 77.586v-3.172l7.707-7.707c0.391-0.391 0.391-1.023 0-1.414s-1.023-0.391-1.414 0L7 71.586v-3.172l7.707-7.707c0.391-0.391 0.391-1.023 0-1.414s-1.023-0.391-1.414 0L7 65.586v-3.172l7.707-7.707c0.391-0.391 0.391-1.023 0-1.414s-1.023-0.391-1.414 0L7 59.586v-3.172l7.707-7.707c0.391-0.391 0.391-1.023 0-1.414s-1.023-0.391-1.414 0L7 53.586v-3.172l7.707-7.707c0.391-0.391 0.391-1.023 0-1.414s-1.023-0.391-1.414 0L7 47.586v-4.155C8.618 41.946 16.742 35 27 35zM56 90c-0.321 0-0.623 0.154-0.812 0.416-0.188 0.26-0.239 0.596-0.137 0.9L55.612 93H44.388l0.561-1.684c0.103-0.305 0.051-0.641-0.137-0.9C44.623 90.154 44.321 90 44 90H8.703c3.223-2.533 10.062-7 18.297-7 11.491 0 22.26 8.687 22.367 8.774C49.551 91.925 49.775 92 50 92s0.449-0.075 0.633-0.227C50.74 91.686 61.49 83 73 83c8.235 0 15.074 4.467 18.297 7H56z" fill="#000000" data-fill-palette-color="accent"></path><path d="M25 51h5v5c0 0.553 0.447 1 1 1s1-0.447 1-1v-5h5c0.553 0 1-0.447 1-1s-0.447-1-1-1h-5v-5c0-0.552-0.447-1-1-1s-1 0.448-1 1v5h-5c-0.553 0-1 0.447-1 1S24.447 51 25 51z" fill="#000000" data-fill-palette-color="accent"></path><path d="M24.293 27.707C24.488 27.902 24.744 28 25 28s0.512-0.098 0.707-0.293L29 24.414l3.293 3.293C32.488 27.902 32.744 28 33 28s0.512-0.098 0.707-0.293c0.391-0.391 0.391-1.023 0-1.414L30.414 23l3.293-3.293c0.391-0.391 0.391-1.023 0-1.414s-1.023-0.391-1.414 0L29 21.586l-3.293-3.293c-0.391-0.391-1.023-0.391-1.414 0s-0.391 1.023 0 1.414L27.586 23l-3.293 3.293C23.902 26.684 23.902 27.316 24.293 27.707z" fill="#000000" data-fill-palette-color="accent"></path><path d="M66.293 28.707C66.488 28.902 66.744 29 67 29s0.512-0.098 0.707-0.293l10-10c0.391-0.391 0.391-1.023 0-1.414s-1.023-0.391-1.414 0l-10 10C65.902 27.684 65.902 28.316 66.293 28.707z" fill="#000000" data-fill-palette-color="accent"></path><path d="M25 61h12c0.553 0 1-0.447 1-1s-0.447-1-1-1H25c-0.553 0-1 0.447-1 1S24.447 61 25 61z" fill="#000000" data-fill-palette-color="accent"></path><path d="M68 22c1.654 0 3-1.346 3-3s-1.346-3-3-3-3 1.346-3 3S66.346 22 68 22zM68 18c0.552 0 1 0.449 1 1s-0.448 1-1 1-1-0.449-1-1S67.448 18 68 18z" fill="#000000" data-fill-palette-color="accent"></path><path d="M73 27c0 1.654 1.346 3 3 3s3-1.346 3-3-1.346-3-3-3S73 25.346 73 27zM77 27c0 0.551-0.448 1-1 1s-1-0.449-1-1 0.448-1 1-1S77 26.449 77 27z" fill="#000000" data-fill-palette-color="accent"></path><path d="M43.68 9.944c0.105 0.036 0.214 0.053 0.319 0.053 0.416 0 0.805-0.262 0.948-0.675C44.979 9.227 45.776 7 48 7h10c0.553 0 1-0.448 1-1s-0.447-1-1-1H48c-3.679 0-4.898 3.533-4.948 3.684C42.877 9.206 43.158 9.767 43.68 9.944z" fill="#000000" data-fill-palette-color="accent"></path><path d="M48.008 8.876l-0.988 7.928c-0.311 1.551-0.856 2.604-1.58 3.044-0.581 0.353-1.119 0.204-1.123 0.203-0.529-0.175-1.09 0.109-1.265 0.632-0.175 0.524 0.108 1.09 0.632 1.265 0.07 0.023 0.428 0.133 0.938 0.133 0.493 0 1.131-0.103 1.79-0.485 1.268-0.736 2.132-2.216 2.58-4.473l1-8c0.068-0.548-0.32-1.048-0.868-1.116C48.574 7.939 48.076 8.329 48.008 8.876z" fill="#000000" data-fill-palette-color="accent"></path><path d="M54.992 9.124c0.068-0.548-0.32-1.048-0.868-1.116-0.553-0.069-1.048 0.321-1.116 0.868l-0.988 7.928c-0.623 3.116 0.786 4.659 2.313 5.064 0.306 0.082 0.615 0.12 0.923 0.12 1.612 0 3.158-1.065 3.693-2.672 0.175-0.524-0.108-1.09-0.632-1.265-0.528-0.176-1.092 0.108-1.265 0.633-0.333 0.996-1.438 1.457-2.206 1.251-0.853-0.227-1.168-1.225-0.854-2.812L54.992 9.124z" fill="#000000" data-fill-palette-color="accent"></path><path d="M79.707 50.293c-0.391-0.391-1.023-0.391-1.414 0L76 52.586l-2.293-2.293c-0.391-0.391-1.023-0.391-1.414 0s-0.391 1.023 0 1.414L74.586 54l-2.293 2.293c-0.391 0.391-0.391 1.023 0 1.414C72.488 57.902 72.744 58 73 58s0.512-0.098 0.707-0.293L76 55.414l2.293 2.293C78.488 57.902 78.744 58 79 58s0.512-0.098 0.707-0.293c0.391-0.391 0.391-1.023 0-1.414L77.414 54l2.293-2.293C80.098 51.316 80.098 50.684 79.707 50.293z" fill="#000000" data-fill-palette-color="accent"></path><path d="M67.2 58.6c0.19 0.256 0.489 0.4 0.8 0.4 0.065 0 0.132-0.006 0.198-0.02 0.378-0.076 0.679-0.363 0.771-0.738L71.781 47h8.601l0.724 1.447c0.248 0.494 0.848 0.693 1.342 0.447 0.494-0.247 0.694-0.848 0.447-1.342l-1-2C81.725 45.214 81.379 45 81 45H71c-0.459 0-0.858 0.313-0.97 0.757l-2.491 9.961L65.8 53.4c-0.331-0.441-0.959-0.533-1.399-0.2-0.442 0.331-0.532 0.958-0.2 1.399L67.2 58.6z" fill="#000000" data-fill-palette-color="accent"></path></svg><g></g></g></svg></g></svg></g></svg></g></svg></g></svg></g><defs></defs></svg><rect width="95.481" height="95.481" fill="none" stroke="none" visibility="hidden"></rect></g></svg></g></svg>