<?xml version="1.0" standalone="no"?>
<!DOCTYPE svg PUBLIC "-//W3C//DTD SVG 20010904//EN"
 "http://www.w3.org/TR/2001/REC-SVG-20010904/DTD/svg10.dtd">
<svg version="1.0" xmlns="http://www.w3.org/2000/svg"
 width="1308.000000pt" height="968.000000pt" viewBox="0 0 1308.000000 968.000000"
 preserveAspectRatio="xMidYMid meet">

<g transform="translate(0.000000,968.000000) scale(0.100000,-0.100000)"
fill="#000000" stroke="none">
<path d="M6064 5790 c-12 -4 -31 -21 -43 -36 -21 -27 -21 -30 -21 -595 l0
-569 89 0 c49 0 96 3 105 6 14 5 16 46 16 350 0 189 3 344 8 344 4 0 89 -145
190 -323 101 -177 189 -329 195 -337 44 -58 114 -66 158 -19 25 27 367 615
385 662 19 51 24 -14 24 -333 l0 -350 104 0 104 0 4 543 c2 298 0 558 -4 577
-9 48 -58 90 -103 90 -26 0 -44 -9 -70 -32 -27 -26 -405 -672 -489 -835 -9
-18 -20 -33 -25 -33 -5 0 -39 55 -77 123 -37 67 -113 201 -169 297 -56 96
-132 229 -169 295 -95 169 -138 205 -212 175z"/>
<path d="M7530 5675 l0 -105 238 -2 237 -3 3 -487 2 -488 88 0 c48 0 93 4 99
8 10 6 13 119 15 488 l3 479 238 3 237 2 0 105 0 105 -580 0 -580 0 0 -105z"/>
<path d="M9040 5771 c-85 -26 -155 -86 -189 -161 -20 -43 -21 -64 -21 -533 l0
-488 103 3 102 3 3 467 2 467 26 20 c26 20 39 21 311 21 324 0 339 -3 391 -83
25 -39 27 -49 27 -153 0 -101 -2 -113 -25 -147 -15 -23 -45 -48 -76 -63 -52
-25 -54 -25 -308 -25 l-256 0 0 -104 0 -105 275 0 c252 0 281 2 337 21 111 37
190 107 237 209 21 47 26 73 29 176 7 211 -36 325 -160 418 -79 60 -127 66
-471 65 -172 0 -323 -4 -337 -8z"/>
<path d="M10162 5188 l3 -593 80 -3 c44 -2 90 0 102 3 l23 5 0 590 0 590 -105
0 -105 0 2 -592z"/>
<path d="M10855 5540 l-239 -239 -76 -3 -75 -3 -3 -85 c-5 -131 -5 -130 81
-130 l72 0 245 -245 245 -245 150 0 150 0 -303 296 c-167 163 -302 302 -300
308 2 6 73 79 158 161 85 83 219 212 297 288 l141 137 -152 0 -151 0 -240
-240z"/>
<path d="M1885 5486 c-89 -28 -179 -94 -228 -168 -41 -62 -77 -161 -77 -213
l0 -35 130 0 130 0 24 48 c26 52 74 95 119 106 l27 6 0 135 0 135 -42 -1 c-24
0 -61 -6 -83 -13z m-71 -102 c3 -9 6 -31 6 -49 0 -33 2 -34 43 -37 51 -4 61
-32 12 -35 -16 0 -36 -2 -42 -2 -9 -1 -13 -17 -13 -47 0 -38 -3 -45 -17 -42
-14 3 -17 12 -16 43 3 45 -7 55 -60 55 -53 0 -43 24 11 28 38 3 42 6 42 30 0
59 20 92 34 56z"/>
<path d="M2040 5367 c0 -133 0 -135 23 -141 47 -11 104 -63 122 -110 l18 -46
133 0 134 0 0 38 c-1 55 -44 167 -85 220 -73 94 -185 160 -287 169 l-58 6 0
-136z m304 -73 c40 -15 7 -24 -93 -24 -99 0 -143 10 -109 23 19 8 183 8 202 1z"/>
<path d="M2813 5476 c-88 -28 -148 -81 -185 -161 -23 -50 -23 -53 -26 -527
l-3 -478 95 0 c52 0 101 3 110 6 14 5 16 56 16 464 0 452 0 457 21 476 19 17
41 19 237 22 119 2 227 1 239 -3 13 -3 32 -14 43 -25 19 -19 20 -34 20 -209
l0 -190 -26 -20 c-25 -20 -39 -21 -235 -21 l-209 0 0 -110 0 -110 178 0 c97 0
206 5 241 10 117 20 199 78 243 175 21 47 22 64 23 260 0 184 -2 216 -19 260
-29 74 -78 129 -144 162 l-57 28 -260 2 c-195 2 -270 -1 -302 -11z"/>
<path d="M3965 5481 c-85 -22 -163 -93 -195 -177 -18 -49 -20 -78 -20 -258 0
-250 8 -285 83 -361 80 -79 110 -87 375 -92 l222 -5 0 106 0 106 -209 0 c-207
0 -210 0 -238 24 l-28 24 -3 178 c-2 97 -1 188 3 201 3 13 20 32 38 43 29 18
51 20 252 20 242 0 251 -2 275 -59 15 -38 7 -75 -25 -107 -24 -24 -25 -24
-240 -24 l-215 0 0 -101 0 -101 238 4 c226 3 239 4 285 27 60 29 109 78 138
139 31 64 32 187 2 252 -25 56 -81 112 -142 142 -44 22 -57 23 -306 25 -143 1
-273 -2 -290 -6z"/>
<path d="M4903 5470 c-22 -13 -35 -31 -43 -59 -6 -25 -9 -176 -8 -428 l3 -388
108 -3 107 -3 0 346 0 345 208 0 c199 0 211 -1 253 -23 24 -13 58 -43 74 -66
l30 -43 3 -279 3 -279 67 0 c37 0 84 3 105 6 l37 7 0 231 c0 281 -10 376 -45
446 -51 100 -157 178 -274 200 -29 5 -176 10 -325 10 -251 0 -273 -2 -303 -20z"/>
<path d="M1950 5090 c0 -6 32 -10 75 -10 43 0 75 4 75 10 0 6 -32 10 -75 10
-43 0 -75 -4 -75 -10z"/>
<path d="M1580 5012 c0 -37 27 -126 53 -177 52 -102 205 -208 322 -221 l55 -7
0 141 0 140 -33 6 c-44 8 -106 66 -118 110 l-10 36 -134 0 -135 0 0 -28z m280
-147 l-32 -33 32 -30 c37 -32 35 -60 -3 -41 -12 7 -26 18 -30 25 -12 20 -40
17 -55 -6 -11 -18 -52 -29 -52 -14 0 4 14 22 31 42 l31 35 -26 20 c-24 17 -37
57 -18 57 5 0 21 -13 37 -30 l28 -29 41 35 c33 29 42 32 44 19 2 -10 -11 -32
-28 -50z"/>
<path d="M1950 5028 c0 -5 37 -8 82 -8 45 0 79 3 75 6 -8 9 -157 10 -157 2z"/>
<path d="M2190 5006 c-14 -43 -75 -104 -114 -114 l-31 -8 -3 -137 -3 -137 29
0 c43 0 151 38 205 72 98 63 181 191 193 301 l7 57 -136 0 -135 0 -12 -34z
m78 -68 c15 -15 16 -55 1 -63 -21 -14 -59 5 -59 28 0 24 17 47 35 47 6 0 16
-5 23 -12z m17 -88 c77 0 95 -6 95 -32 0 -13 -4 -17 -12 -11 -7 4 -62 10 -123
13 -63 3 -110 9 -110 15 0 6 14 11 30 13 17 2 34 8 40 13 6 6 11 6 13 -1 2 -5
32 -10 67 -10z m5 -70 c15 -11 30 -17 34 -13 3 3 6 2 6 -4 0 -16 -28 -36 -44
-30 -7 3 -18 1 -24 -5 -14 -14 -52 8 -52 30 0 22 19 42 38 42 8 0 26 -9 42
-20z"/>
<path d="M3589 4051 c-26 -26 -29 -37 -29 -89 0 -49 4 -64 24 -85 67 -72 166
-24 166 82 0 53 -17 89 -51 107 -43 22 -77 17 -110 -15z m110 -15 c41 -44 25
-158 -24 -170 -39 -10 -72 9 -85 49 -33 99 47 187 109 121z"/>
<path d="M4533 4070 c-51 -21 -39 -84 22 -111 52 -23 69 -42 60 -68 -9 -29
-47 -36 -85 -16 -30 16 -32 15 -28 -2 5 -25 69 -40 103 -25 32 15 53 57 39 80
-6 9 -33 29 -60 43 -51 26 -64 49 -44 74 14 17 56 20 65 5 9 -15 25 -12 25 4
0 23 -56 32 -97 16z"/>
<path d="M4744 4070 c-76 -30 -82 -167 -10 -211 45 -28 73 -24 112 15 29 29
34 41 34 80 0 58 -17 94 -51 112 -31 16 -54 17 -85 4z m80 -31 c22 -18 26 -28
26 -75 0 -45 -4 -59 -25 -79 -37 -38 -76 -32 -100 16 -19 36 -19 82 0 119 23
45 58 52 99 19z"/>
<path d="M4939 4076 c-2 -2 -2 -48 1 -101 4 -86 8 -99 29 -116 32 -26 77 -24
106 6 23 22 25 32 25 120 0 52 -4 95 -9 95 -4 0 -11 -44 -15 -97 -5 -74 -11
-101 -23 -110 -24 -19 -50 -16 -73 7 -17 17 -20 33 -20 110 0 79 -5 101 -21
86z"/>
<path d="M5203 4072 l-33 -3 0 -115 c0 -86 3 -115 12 -112 8 3 11 21 9 50 -1
25 2 48 7 51 20 13 51 -7 67 -44 10 -21 24 -44 32 -50 26 -22 25 0 -1 48 l-27
47 25 19 c29 21 33 52 11 84 -15 22 -49 30 -102 25z m77 -32 c26 -26 25 -32
-4 -59 -16 -15 -33 -21 -52 -19 -25 3 -29 8 -32 36 -2 19 -1 40 2 48 8 21 63
17 86 -6z"/>
<path d="M5423 4070 c-29 -12 -63 -67 -63 -103 0 -80 65 -140 131 -121 18 5
34 15 37 23 3 10 -1 11 -19 5 -36 -13 -79 -9 -96 9 -9 9 -18 39 -21 71 -4 48
-2 57 21 80 30 30 62 33 89 9 17 -15 18 -15 18 4 0 30 -51 42 -97 23z"/>
<path d="M6150 4058 c-5 -13 -25 -65 -43 -115 -31 -84 -32 -93 -16 -93 13 0
19 9 21 33 3 31 4 32 52 32 47 0 50 -2 58 -31 4 -18 15 -35 24 -38 19 -7 19
-9 -31 127 -21 59 -43 107 -47 107 -5 0 -13 -10 -18 -22z m44 -95 c7 -21 4
-23 -28 -23 -20 0 -36 1 -36 3 0 2 8 26 17 53 l17 49 12 -30 c6 -17 15 -40 18
-52z"/>
<path d="M7205 4063 c-4 -10 -20 -54 -35 -98 -15 -44 -31 -88 -35 -97 -5 -12
-2 -18 7 -18 9 0 19 15 24 33 8 28 14 32 48 35 44 4 66 -11 66 -44 0 -17 6
-24 20 -24 19 0 20 2 7 28 -8 15 -27 66 -43 115 -27 85 -45 105 -59 70z m28
-40 c3 -10 10 -33 15 -50 l11 -33 -39 0 -38 0 16 50 c17 53 26 61 35 33z"/>
<path d="M7392 4072 c-43 -2 -70 -7 -67 -12 4 -6 19 -10 36 -10 l29 0 0 -100
c0 -82 3 -100 15 -100 12 0 15 18 15 99 l0 100 33 3 c17 2 31 7 30 13 -2 12
-1 12 -91 7z"/>
<path d="M7540 3971 c0 -61 0 -114 -1 -118 0 -4 4 -9 10 -11 14 -5 15 224 1
233 -6 4 -10 -33 -10 -104z"/>
<path d="M7668 4064 c-66 -35 -75 -139 -17 -197 26 -26 35 -29 71 -24 39 5 67
21 56 32 -3 3 -17 1 -32 -5 -57 -21 -106 19 -106 89 0 67 53 116 98 92 27 -14
32 -14 32 3 0 27 -61 33 -102 10z"/>
<path d="M7847 4069 c-25 -14 -37 -50 -25 -72 5 -11 30 -28 54 -38 55 -25 73
-53 48 -80 -20 -23 -53 -25 -80 -4 -27 20 -37 19 -24 -4 23 -44 124 -33 136
14 11 43 0 60 -58 88 -42 20 -58 33 -58 48 0 28 43 46 76 30 33 -15 46 -5 20
15 -23 16 -63 18 -89 3z"/>
<path d="M8090 3957 c0 -90 3 -118 13 -115 6 3 13 25 15 51 l3 47 40 0 c68 0
102 61 62 108 -13 15 -34 21 -75 24 l-58 5 0 -120z m102 91 c42 -35 19 -88
-38 -88 l-34 0 0 50 c0 48 1 50 28 50 16 0 35 -6 44 -12z"/>
<path d="M8319 4053 c-13 -32 -69 -195 -69 -200 0 -2 7 -3 15 -3 9 0 15 9 15
24 0 33 22 48 66 44 34 -3 40 -7 48 -35 5 -18 15 -33 22 -33 8 0 14 1 14 3 -5
30 -80 222 -88 225 -7 2 -17 -9 -23 -25z m31 -38 c5 -14 13 -37 16 -50 6 -23
3 -25 -30 -25 -20 0 -36 1 -36 3 0 10 33 97 36 97 3 0 9 -11 14 -25z"/>
<path d="M8513 4070 c-31 -13 -63 -68 -63 -110 0 -45 32 -98 67 -111 30 -11
89 -4 99 12 10 17 -1 20 -30 9 -59 -22 -106 19 -106 95 0 67 58 113 109 85 17
-8 21 -8 21 3 0 24 -56 34 -97 17z"/>
<path d="M8675 4067 c-10 -24 -1 -222 10 -222 6 0 11 20 13 45 3 41 21 70 44
70 4 0 21 -26 37 -59 28 -55 32 -59 63 -57 28 1 33 6 36 28 4 37 24 50 68 46
34 -3 40 -7 48 -35 5 -18 15 -33 22 -33 8 0 14 1 14 3 -1 1 -18 52 -39 112
-24 68 -44 110 -52 110 -8 0 -23 -28 -37 -65 -44 -128 -54 -150 -65 -150 -7 0
-27 29 -46 65 l-35 65 33 40 c52 64 27 60 -34 -6 l-54 -59 -1 52 c0 50 -15 79
-25 50z m275 -52 c5 -14 13 -37 16 -50 6 -23 3 -25 -29 -25 l-35 0 9 38 c19
73 24 77 39 37z"/>
<path d="M9104 4062 c-83 -52 -63 -193 30 -217 57 -14 90 8 94 63 3 37 0 43
-22 52 -14 5 -33 7 -42 3 -12 -4 -9 -9 15 -19 23 -10 31 -20 31 -38 0 -55 -88
-59 -115 -6 -44 85 17 185 92 151 28 -13 43 -7 26 10 -20 20 -77 21 -109 1z"/>
<path d="M3810 3965 c0 -58 0 -108 -1 -112 0 -4 4 -9 10 -11 7 -2 11 15 11 47
l0 51 45 0 c53 0 85 25 85 68 0 44 -27 62 -93 62 l-57 0 0 -105z m93 86 c61
-23 35 -91 -35 -91 l-38 0 0 44 c0 54 20 67 73 47z"/>
<path d="M4018 3955 l3 -116 61 3 c40 2 63 8 66 16 3 10 -4 12 -31 7 -19 -4
-45 -4 -57 0 -18 6 -21 13 -18 48 3 42 3 42 46 45 52 4 46 22 -9 22 -38 0 -39
1 -39 35 l0 35 55 0 c30 0 55 5 55 10 0 6 -29 10 -67 10 l-68 0 3 -115z"/>
<path d="M4200 3955 c0 -89 3 -116 13 -112 8 3 12 29 13 83 1 43 2 86 3 94 1
8 20 -19 44 -61 86 -154 97 -154 97 2 0 90 -3 109 -15 109 -12 0 -15 -17 -15
-91 l0 -92 -54 89 c-76 127 -86 124 -86 -21z"/>
<path d="M5580 3961 c0 -122 0 -121 73 -121 46 0 76 13 58 24 -6 4 -20 4 -32
1 -11 -4 -31 -4 -45 -1 -21 6 -24 12 -24 51 l0 45 40 0 c22 0 40 5 40 10 0 6
-18 10 -40 10 -39 0 -40 1 -40 35 l0 35 50 0 c28 0 50 5 50 10 0 6 -28 10 -65
10 l-65 0 0 -109z"/>
<path d="M5840 3960 c0 -81 3 -110 13 -110 9 0 11 23 9 92 -2 51 -1 90 2 87 4
-3 22 -44 40 -90 34 -84 34 -84 45 -54 33 89 54 135 59 130 3 -3 5 -44 3 -91
-2 -64 1 -85 10 -82 8 3 12 39 13 116 1 97 -1 112 -15 112 -11 0 -25 -24 -44
-75 -15 -41 -31 -75 -35 -75 -5 0 -21 34 -37 75 -20 54 -33 75 -45 75 -16 0
-18 -12 -18 -110z"/>
<path d="M6265 4060 c3 -5 19 -10 36 -10 l29 0 0 -105 c0 -87 3 -105 15 -105
12 0 15 18 15 105 l0 105 30 0 c17 0 30 5 30 10 0 6 -34 10 -81 10 -51 0 -78
-4 -74 -10z"/>
<path d="M6480 3955 c0 -119 17 -162 22 -57 l3 57 55 0 55 0 3 -57 c5 -105 22
-62 22 57 0 70 -4 115 -10 115 -5 0 -10 -20 -10 -45 l0 -45 -60 0 -60 0 0 45
c0 25 -4 45 -10 45 -6 0 -10 -45 -10 -115z"/>
<path d="M6710 3955 l0 -115 70 0 c81 0 95 18 18 22 l-53 3 -3 42 c-3 45 -4
45 68 56 14 3 4 5 -22 6 l-48 1 0 40 0 40 50 0 c28 0 50 5 50 10 0 6 -28 10
-65 10 l-65 0 0 -115z"/>
<path d="M6900 3955 c0 -138 18 -156 22 -22 l3 92 30 -78 c16 -42 34 -76 40
-74 5 2 21 36 35 75 14 40 29 72 34 72 4 0 7 -37 5 -82 -3 -49 0 -85 6 -88 6
-3 12 37 15 108 5 102 3 112 -12 112 -18 0 -35 -32 -65 -124 l-16 -50 -13 30
c-7 16 -22 55 -34 87 -36 93 -50 77 -50 -58z"/>
<path d="M9290 3955 l0 -115 65 0 c52 0 65 3 65 15 0 13 -7 15 -34 10 -59 -12
-76 0 -76 51 l0 44 45 0 c25 0 45 5 45 10 0 6 -20 10 -45 10 -45 0 -45 0 -45
35 l0 35 55 0 c30 0 55 5 55 10 0 6 -28 10 -65 10 l-65 0 0 -115z"/>
</g>
</svg>
